PathFileType	4	(X/Y/Z)	../Python\walking\Walking08\task.trc
DataRate	CameraRate	NumFrames	NumMarkers	Units	OrigDataRate	OrigDataStartFrame	OrigNumFrames
200.000000	200.000000	4	30	mm	200.000000	0	501
Frame#	Time	CLAV			STRN			RASI			LPSI			LASI			RTH1			RTH2			RTH3			RTB1			RTB2			RTB3			RHEE			RD5M			RTOE			LTB1			LTB2			LTB3			LTOE			LD5M			RPSI			LTH2			LTH1			PE03			T10			LTH3			PE01			PE02			C7			RBAK			LHEE			
		X1	Y1	Z1	X2	Y2	Z2	X3	Y3	Z3	X4	Y4	Z4	X5	Y5	Z5	X6	Y6	Z6	X7	Y7	Z7	X8	Y8	Z8	X9	Y9	Z9	X10	Y10	Z10	X11	Y11	Z11	X12	Y12	Z12	X13	Y13	Z13	X14	Y14	Z14	X15	Y15	Z15	X16	Y16	Z16	X17	Y17	Z17	X18	Y18	Z18	X19	Y19	Z19	X20	Y20	Z20	X21	Y21	Z21	X22	Y22	Z22	X23	Y23	Z23	X24	Y24	Z24	X25	Y25	Z25	X26	Y26	Z26	X27	Y27	Z27	X28	Y28	Z28	X29	Y29	Z29	X30	Y30	Z30	

1	0	-546.7617797851565	1433.28759765625	161.0960845947266	-495.2593994140627	1240.809692382813	176.6819000244141	-531.781921386719	1029.446533203125	310.4415283203126	-690.8143310546877	1077.076049804688	126.8740921020508	-515.5048828125002	1032.111694335938	38.56711196899415	-501.6829223632815	776.8228149414067	358.6960754394532	-541.859558105469	733.522888183594	335.5993041992189	-503.518005371094	701.1116943359377	332.7512207031251	-457.296813964844	402.2383422851565	302.5815429687501	-516.7881469726565	383.9179992675782	300.518524169922	-500.6497497558596	335.9527282714845	294.7783813476564	-706.774108886719	135.9959106445313	210.5804595947267	-583.2075195312502	56.0252494812012	305.4402770996095	-526.4685058593752	49.56290054321292	274.6736145019532	-670.174499511719	358.9649047851564	62.18677902221683	-702.8756103515627	323.7219848632814	75.5423278808594	-655.6822509765627	282.9531250000001	76.02333831787112	-534.371032714844	30.035945892334	159.4089508056641	-578.5583496093752	15.11400604248048	108.4959106445313	-688.5312500000002	1072.321411132813	226.5135040283204	-646.721130371094	687.2752075195315	24.56687164306642	-613.7694091796877	723.6138305664065	12.08044815063477	-696.7099609375002	1062.32373046875	152.241439819336	-721.3118286132815	1269.73583984375	157.1151885986329	-598.9385986328127	648.7353515625002	31.66844749450685	-682.2489013671877	1121.474609375	178.3809204101563	-694.1421508789065	1060.9189453125	203.1336822509767	-658.133728027344	1523.849487304688	143.2201385498047	-690.063171386719	1446.284057617188	314.5508117675782	-748.4021606445315	37.71158599853517	163.3418273925782	
2	0.005	-540.401550292969	1432.917846679688	160.9177856445313	-489.0624084472659	1240.410278320313	176.2719116210938	-525.3565673828127	1029.592163085938	309.8910522460939	-684.9592895507815	1076.731201171875	127.161476135254	-509.9765930175784	1031.464477539063	38.08462524414064	-493.3863220214846	777.7634277343755	358.5752868652345	-533.3330688476565	734.0737304687502	336.1140136718751	-494.781188964844	701.976257324219	332.8652648925782	-444.1209716796877	401.7864074707034	301.9447631835939	-502.9848937988284	381.7370910644532	300.3931884765626	-485.5619201660159	334.3105773925782	294.2741699218751	-686.178649902344	128.1667480468751	210.7005157470704	-559.8460083007815	52.69330215454104	305.6046142578126	-502.951110839844	48.16305923461917	274.8280334472657	-668.7752075195315	359.1067504882814	62.27222442626956	-701.6031494140627	324.0331420898439	75.63218688964847	-654.5767211914065	283.0329895019532	76.12905120849612	-534.1682739257815	29.97290802001955	159.3737487792969	-578.5483398437502	15.10120296478272	108.4822082519532	-682.3547363281252	1072.156982421875	226.7886657714845	-643.415954589844	687.3823242187502	24.69512176513673	-610.248474121094	723.480407714844	12.0520420074463	-690.777038574219	1062.005981445313	152.5657958984376	-715.1127929687502	1269.58935546875	156.7308197021485	-595.8787231445315	648.4979248046877	31.59897041320802	-676.1812744140627	1121.2060546875	178.5299530029297	-688.037780761719	1060.717651367188	203.4613037109376	-651.655700683594	1523.613647460938	143.1346893310547	-683.756774902344	1445.917724609375	314.2688293457032	-748.3338012695315	38.06581497192384	163.6457519531251	
3	0.01	-534.0245361328127	1432.479614257813	160.7407684326172	-482.8586120605471	1239.931518554688	175.8808746337891	-518.9185180664065	1029.652709960938	309.3677062988282	-679.106384277344	1076.33056640625	127.4705505371094	-504.4562988281252	1030.770263671875	37.61515426635744	-485.1562500000002	778.5937500000005	358.4400939941407	-524.886169433594	734.5314941406252	336.653778076172	-486.1473388671877	702.7307739257815	332.9754028320314	-431.0476684570315	401.2624816894534	301.3061523437501	-489.2167968750002	379.4730224609376	300.2719116210939	-470.503845214844	332.6331481933595	293.7592773437501	-665.2919921875002	120.3934936523438	210.7896881103517	-536.3471679687502	49.48484802246097	305.7035217285157	-479.3660888671877	46.88828277587892	274.9126892089845	-667.2872314453127	359.2271118164064	62.3973197937012	-700.260437011719	324.3252868652345	75.75129699707034	-653.4131469726565	283.0901489257814	76.27727508544925	-533.9629516601565	29.90296745300294	159.3385009765626	-578.5411376953127	15.09407234191895	108.4782638549805	-676.1750488281252	1071.917358398438	227.0817871093751	-640.0346679687502	687.4324340820315	24.8205909729004	-606.6646118164065	723.3057250976565	12.0411024093628	-684.8442382812502	1061.626708984375	152.9091949462891	-708.9089355468752	1269.38427734375	156.3569641113282	-592.7387695312502	648.2273559570315	31.56156539916994	-670.1128540039065	1120.870727539063	178.7069091796876	-681.9295043945315	1060.445190429688	203.8067932128907	-645.1616210937502	1523.315307617188	143.0443420410157	-677.4349365234377	1445.495361328125	313.9880371093751	-748.2549438476565	38.42687225341798	163.9981231689454	
4	0.015	-527.6306762695315	1431.973266601563	160.5657653808594	-476.6483459472659	1239.374755859375	175.5091247558594	-512.4665527343752	1029.628662109375	308.8728637695314	-673.2534179687502	1075.8759765625	127.8002319335938	-498.9421081542971	1030.0302734375	37.15895462036134	-476.9957580566409	779.310424804688	358.2938232421876	-516.523376464844	734.8928222656252	337.2127685546876	-477.6186828613284	703.3723144531252	333.0823364257814	-418.0887756347659	400.6780700683596	300.6735229492189	-475.4964599609377	377.1432189941407	300.1512145996095	-455.4900817871096	330.9370117187501	293.2419738769532	-644.1268310546877	112.7108688354493	210.8484039306642	-512.722351074219	46.42141342163087	305.7301330566407	-455.7258911132815	45.75781250000001	274.9183044433595	-665.715026855469	359.3252868652345	62.56495666503909	-698.8520507812502	324.5988769531251	75.90561676025393	-652.1975097656252	283.1255798339845	76.46933746337893	-533.756774902344	29.8268451690674	159.3036651611329	-578.5385742187502	15.09418964385987	108.4865493774415	-669.9903564453127	1071.604248046875	227.3918762207032	-636.577575683594	687.4249267578127	24.942928314209	-603.0162353515627	723.0884399414065	12.0475721359253	-678.9094848632815	1061.187622070313	153.2705688476563	-702.7005615234377	1269.120971679688	155.994369506836	-589.517761230469	647.922302246094	31.55632400512697	-664.0427246093752	1120.470581054688	178.9108123779297	-675.8151855468752	1060.103149414063	204.1690216064454	-638.6512451171877	1522.954956054688	142.9495544433594	-671.097351074219	1445.017333984375	313.709197998047	-748.1643676757815	38.79472732543947	164.4039611816407	
